<?xml version="1.0" standalone="no"?>
<!DOCTYPE svg PUBLIC "-//W3C//DTD SVG 20010904//EN"
 "http://www.w3.org/TR/2001/REC-SVG-20010904/DTD/svg10.dtd">
<svg version="1.0" xmlns="http://www.w3.org/2000/svg"
 width="512.000000pt" height="512.000000pt" viewBox="0 0 512.000000 512.000000"
 preserveAspectRatio="xMidYMid meet">
<metadata>
Created by potrace 1.14, written by Peter Selinger 2001-2017
</metadata>
<g transform="translate(0.000000,512.000000) scale(0.100000,-0.100000)"
fill="#000000" stroke="none">
<path d="M2240 5105 c-444 -55 -852 -220 -1220 -493 -150 -112 -400 -362 -512
-512 -276 -372 -439 -779 -494 -1230 -17 -148 -17 -472 0 -620 55 -451 218
-858 494 -1230 112 -150 362 -400 512 -512 372 -276 779 -439 1230 -494 148
-17 472 -17 620 0 451 55 858 218 1230 494 150 112 400 362 512 512 276 372
439 779 494 1230 17 148 17 472 0 620 -55 451 -218 858 -494 1230 -112 150
-362 400 -512 512 -372 276 -779 439 -1230 494 -143 17 -488 16 -630 -1z m160
-821 l0 -506 -182 7 c-174 6 -565 39 -574 48 -2 2 16 54 41 116 136 341 330
613 531 747 66 44 152 88 182 94 1 0 2 -228 2 -506z m389 480 c72 -30 201
-127 279 -209 103 -109 207 -264 288 -430 57 -118 129 -294 122 -301 -8 -7
-396 -35 -570 -40 l-198 -7 0 507 0 507 23 -7 c12 -3 37 -13 56 -20z m-1117
-181 c-112 -156 -225 -373 -296 -568 -20 -55 -41 -109 -45 -121 l-9 -21 -139
27 c-174 34 -363 82 -363 92 0 15 265 275 335 330 127 99 258 182 404 255 80
40 148 73 153 73 5 0 -14 -30 -40 -67z m1889 -6 c212 -106 386 -228 553 -387
90 -85 200 -210 192 -217 -8 -8 -203 -53 -358 -82 l-148 -28 -16 46 c-105 291
-217 515 -345 687 -22 30 -36 54 -31 54 4 0 73 -33 153 -73z m-2726 -918 c66
-17 182 -43 258 -59 76 -15 140 -29 142 -31 2 -2 -5 -47 -16 -99 -41 -199 -59
-348 -85 -682 l-6 -78 -410 0 -409 0 6 58 c35 308 101 536 231 799 l75 152 47
-15 c26 -8 101 -28 167 -45z m3744 -101 c124 -250 189 -477 225 -785 l7 -53
-410 0 -409 0 -6 63 c-3 34 -10 125 -16 202 -12 151 -38 335 -68 483 l-19 92
21 5 c11 3 100 20 196 40 96 19 222 48 280 64 58 15 110 29 116 30 7 0 44 -63
83 -141z m-2714 -63 c99 -8 260 -18 357 -22 l178 -6 0 -374 0 -373 -480 0
-480 0 5 73 c20 263 47 472 81 627 8 36 16 74 19 86 4 19 8 20 72 12 38 -4
149 -15 248 -23z m1717 -20 c46 -222 77 -449 92 -672 l5 -83 -479 0 -480 0 0
375 0 375 110 0 c131 0 408 16 580 35 167 17 163 18 172 -30z m-2448 -1127
c23 -279 30 -348 47 -460 16 -110 37 -221 54 -295 5 -19 -1 -22 -68 -33 -99
-16 -363 -75 -469 -104 l-88 -25 -24 42 c-83 141 -173 377 -219 572 -21 89
-57 313 -57 356 0 5 158 9 409 9 l409 0 6 -62z m1276 -312 l0 -363 -167 -7
c-93 -4 -262 -14 -378 -23 -115 -9 -234 -17 -264 -17 l-54 -1 -13 55 c-35 150
-70 411 -88 653 l-5 67 484 0 485 0 0 -364z m1264 297 c-11 -150 -26 -295 -45
-417 -20 -129 -53 -294 -61 -302 -3 -2 -65 2 -139 11 -126 13 -318 27 -591 41
l-118 6 0 364 0 364 480 0 479 0 -5 -67z m1130 15 c-36 -308 -100 -530 -225
-785 -39 -79 -73 -143 -77 -143 -4 0 -52 13 -107 29 -108 31 -326 81 -442 102
-40 7 -73 13 -73 15 0 1 9 45 20 97 39 194 80 500 80 610 0 29 3 69 6 90 l7
37 409 0 409 0 -7 -52z m-2404 -1493 c0 -278 -2 -505 -5 -505 -17 0 -142 64
-191 98 -113 76 -265 250 -353 400 -100 172 -221 450 -201 462 12 7 431 40
560 43 47 2 109 4 138 5 l52 2 0 -505z m610 490 c111 -5 462 -35 467 -39 2 -2
-15 -48 -36 -103 -161 -412 -394 -710 -647 -824 -35 -16 -66 -29 -69 -29 -3 0
-5 227 -5 505 l0 506 88 -5 c48 -3 139 -8 202 -11z m-1643 -200 c82 -223 200
-449 319 -612 l53 -72 -32 11 c-18 7 -90 41 -162 77 -137 70 -273 157 -390
250 -156 125 -368 348 -343 362 35 18 465 110 497 106 7 -1 32 -54 58 -122z
m2598 85 c154 -31 333 -75 341 -83 8 -7 -103 -133 -192 -217 -163 -155 -339
-279 -539 -381 -71 -36 -144 -70 -162 -77 l-32 -11 52 72 c121 165 242 397
319 609 24 65 48 118 53 118 6 0 78 -14 160 -30z"/>
</g>
</svg>
